<mxfile host="app.diagrams.net" modified="2023-02-10T02:05:12.838Z" agent="5.0 (Macintosh; Intel Mac OS X 10_15_7) AppleWebKit/537.36 (KHTML, like Gecko) Chrome/109.0.0.0 Safari/537.36" etag="ldbolDbjjHeiFzioCKj5" version="20.8.18" type="github">
  <diagram name="第 1 页" id="uBSukknTCDv7lwkkizgo">
    <mxGraphModel dx="1247" dy="698" grid="1" gridSize="10" guides="1" tooltips="1" connect="1" arrows="1" fold="1" page="1" pageScale="1" pageWidth="827" pageHeight="1169" math="0" shadow="0">
      <root>
        <mxCell id="0" />
        <mxCell id="1" parent="0" />
        <mxCell id="ed5ei-RrGfNM-pzoV9UX-3" value="" style="edgeStyle=orthogonalEdgeStyle;rounded=0;orthogonalLoop=1;jettySize=auto;html=1;" edge="1" parent="1" source="ed5ei-RrGfNM-pzoV9UX-1" target="ed5ei-RrGfNM-pzoV9UX-2">
          <mxGeometry relative="1" as="geometry" />
        </mxCell>
        <mxCell id="ed5ei-RrGfNM-pzoV9UX-1" value="" style="ellipse;whiteSpace=wrap;html=1;aspect=fixed;" vertex="1" parent="1">
          <mxGeometry x="250" y="50" width="20" height="20" as="geometry" />
        </mxCell>
        <mxCell id="ed5ei-RrGfNM-pzoV9UX-6" value="" style="edgeStyle=orthogonalEdgeStyle;rounded=0;orthogonalLoop=1;jettySize=auto;html=1;" edge="1" parent="1" source="ed5ei-RrGfNM-pzoV9UX-2" target="ed5ei-RrGfNM-pzoV9UX-5">
          <mxGeometry relative="1" as="geometry" />
        </mxCell>
        <mxCell id="ed5ei-RrGfNM-pzoV9UX-2" value="立项" style="rounded=1;whiteSpace=wrap;html=1;" vertex="1" parent="1">
          <mxGeometry x="200" y="140" width="120" height="60" as="geometry" />
        </mxCell>
        <mxCell id="ed5ei-RrGfNM-pzoV9UX-4" value="业务A立项，业务B补充，业务领导C复核后流转下一环节。" style="shape=callout;whiteSpace=wrap;html=1;perimeter=calloutPerimeter;size=30;position=0.08;position2=0;dashed=1;" vertex="1" parent="1">
          <mxGeometry x="320" y="80" width="120" height="80" as="geometry" />
        </mxCell>
        <mxCell id="ed5ei-RrGfNM-pzoV9UX-9" value="" style="edgeStyle=orthogonalEdgeStyle;rounded=0;orthogonalLoop=1;jettySize=auto;html=1;" edge="1" parent="1" source="ed5ei-RrGfNM-pzoV9UX-5" target="ed5ei-RrGfNM-pzoV9UX-8">
          <mxGeometry relative="1" as="geometry" />
        </mxCell>
        <mxCell id="ed5ei-RrGfNM-pzoV9UX-5" value="尽职调查" style="rounded=1;whiteSpace=wrap;html=1;" vertex="1" parent="1">
          <mxGeometry x="200" y="280" width="120" height="60" as="geometry" />
        </mxCell>
        <mxCell id="ed5ei-RrGfNM-pzoV9UX-7" value="业务A提交报告，业务B补充，业务领导C签批后流转下一环节。" style="shape=callout;whiteSpace=wrap;html=1;perimeter=calloutPerimeter;size=30;position=0.08;position2=0;dashed=1;" vertex="1" parent="1">
          <mxGeometry x="320" y="220" width="120" height="80" as="geometry" />
        </mxCell>
        <mxCell id="ed5ei-RrGfNM-pzoV9UX-12" value="" style="edgeStyle=orthogonalEdgeStyle;rounded=0;orthogonalLoop=1;jettySize=auto;html=1;" edge="1" parent="1" source="ed5ei-RrGfNM-pzoV9UX-8" target="ed5ei-RrGfNM-pzoV9UX-11">
          <mxGeometry relative="1" as="geometry" />
        </mxCell>
        <mxCell id="ed5ei-RrGfNM-pzoV9UX-8" value="风控审查" style="rounded=1;whiteSpace=wrap;html=1;" vertex="1" parent="1">
          <mxGeometry x="200" y="410" width="120" height="60" as="geometry" />
        </mxCell>
        <mxCell id="ed5ei-RrGfNM-pzoV9UX-10" value="风控D提交报告，风控领导E复核后流转下一环节。" style="shape=callout;whiteSpace=wrap;html=1;perimeter=calloutPerimeter;size=30;position=0.08;position2=0;dashed=1;" vertex="1" parent="1">
          <mxGeometry x="320" y="360" width="120" height="80" as="geometry" />
        </mxCell>
        <mxCell id="ed5ei-RrGfNM-pzoV9UX-15" value="" style="edgeStyle=orthogonalEdgeStyle;rounded=0;orthogonalLoop=1;jettySize=auto;html=1;" edge="1" parent="1" source="ed5ei-RrGfNM-pzoV9UX-11" target="ed5ei-RrGfNM-pzoV9UX-14">
          <mxGeometry relative="1" as="geometry" />
        </mxCell>
        <mxCell id="ed5ei-RrGfNM-pzoV9UX-11" value="总经理审核" style="rounded=1;whiteSpace=wrap;html=1;" vertex="1" parent="1">
          <mxGeometry x="200" y="540" width="120" height="60" as="geometry" />
        </mxCell>
        <mxCell id="ed5ei-RrGfNM-pzoV9UX-17" value="" style="edgeStyle=orthogonalEdgeStyle;rounded=0;orthogonalLoop=1;jettySize=auto;html=1;" edge="1" parent="1" source="ed5ei-RrGfNM-pzoV9UX-14" target="ed5ei-RrGfNM-pzoV9UX-16">
          <mxGeometry relative="1" as="geometry" />
        </mxCell>
        <mxCell id="ed5ei-RrGfNM-pzoV9UX-14" value="董事长审核" style="rounded=1;whiteSpace=wrap;html=1;" vertex="1" parent="1">
          <mxGeometry x="200" y="670" width="120" height="60" as="geometry" />
        </mxCell>
        <mxCell id="ed5ei-RrGfNM-pzoV9UX-19" value="" style="edgeStyle=orthogonalEdgeStyle;rounded=0;orthogonalLoop=1;jettySize=auto;html=1;" edge="1" parent="1" source="ed5ei-RrGfNM-pzoV9UX-16" target="ed5ei-RrGfNM-pzoV9UX-18">
          <mxGeometry relative="1" as="geometry" />
        </mxCell>
        <mxCell id="ed5ei-RrGfNM-pzoV9UX-16" value="出具意向书" style="rounded=1;whiteSpace=wrap;html=1;" vertex="1" parent="1">
          <mxGeometry x="200" y="800" width="120" height="60" as="geometry" />
        </mxCell>
        <mxCell id="ed5ei-RrGfNM-pzoV9UX-18" value="" style="ellipse;whiteSpace=wrap;html=1;aspect=fixed;dashed=1;" vertex="1" parent="1">
          <mxGeometry x="250" y="930" width="20" height="20" as="geometry" />
        </mxCell>
      </root>
    </mxGraphModel>
  </diagram>
</mxfile>
